<svg xmlns="http://www.w3.org/2000/svg" version="1.1" xmlns:xlink="http://www.w3.org/1999/xlink" viewBox="0 0 18.661743456224116 19.090153749794965"><g transform="matrix(1,0,0,1,4.856236983706674,4.781018940315259)"><rect width="19.090153749794965" height="19.090153749794965" x="-5.070442130492099" y="-4.78101894031526" fill="#ffffff"></rect><g><path d=" M -1.5917663608600665 2.0826814240654095 Q -1.6423660933755764 2.190498292269596 -1.7094692262803726 2.2774135271502614 Q -1.7765723591851688 2.364328762030927 -1.8591896242985786 2.4165538806778053 Q -1.9418068894119886 2.468778999324684 -2.034401504018389 2.476852453256688 Q -2.126996118624789 2.4849259071886913 -2.231219091222169 2.4360128324236987 Q -2.2402038302391847 2.431796188047406 -2.250087043157902 2.4271578792334845 Q -2.259970256076619 2.4225195704195626 -2.26451777061157 2.418192635990384 L -2.139705097073312 2.1522443610867246 Q -2.135157582538361 2.1565712955159033 -2.1261728435213456 2.1607879398921956 Q -2.11718810450433 2.1650045842684884 -2.1100003132907177 2.1683778997695224 Q -2.0524979835818185 2.1953644237777943 -1.9982068765899264 2.182471072473927 Q -1.9439157695980345 2.1695777211700595 -1.8954761620018112 2.1177581134821977 Q -1.8470365544055882 2.0659385057943354 -1.8090867550189558 1.985075854641196 Q -1.7846302176364592 1.932964368342506 -1.7719446352550539 1.8895813917025315 Q -1.7592590528736485 1.846198415062557 -1.7561809582787449 1.8092701908138225 Q -1.7531028636838413 1.772341966565088 -1.7595771118489965 1.7440871069486257 Q -1.7660513600141516 1.7158322473321634 -1.7829764248410673 1.6958290879103446 Q -1.7999014896679828 1.6758259284885253 -1.8268557067190292 1.6631759953596479 Q -1.875373297410913 1.6404061157276684 -1.9206796653857894 1.657516111407828 Q -1.965986033360666 1.674626107087988 -2.0132709376968876 1.7193130685886806 Q -2.060555842033109 1.7640000300893732 -2.1105718173269628 1.823850757866106 Q -2.160587792620817 1.8837014856428391 -2.2131888995668896 1.946724444588749 Q -2.2657900065129617 2.009747403534659 -2.325689194725533 2.06495982249747 Q -2.385588382938104 2.1201722414602813 -2.4504211008707273 2.1555274403066873 Q -2.5152538188033504 2.1908826391530933 -2.5915299638737093 2.1945545178555603 Q -2.6678061089440677 2.1982263965580273 -2.7540596035074163 2.157746610545619 Q -2.8457039414809744 2.1147368379074356 -2.8940594393888315 2.0448992917497044 Q -2.9424149372966886 1.9750617455919732 -2.9526518584432817 1.8847408882530483 Q -2.962888779589875 1.7944200309141234 -2.940543906690827 1.6930774108750923 Q -2.918199033791779 1.5917347908360615 -2.867599301276269 1.4839179226318753 Q -2.8203728842617934 1.3832888456413015 -2.757541540759733 1.3031397375366192 Q -2.694710197257672 1.2229906294319368 -2.6177400049127715 1.1757898347840814 Q -2.540769812567871 1.128589040136226 -2.4543542252204955 1.122001159622882 Q -2.3679386378731198 1.1154132791095384 -2.2744973520961587 1.1592663806229804 L -2.2529339784553213 1.1693863271260823 L -2.3752166653678035 1.4299437586195323 L -2.3895922477950284 1.4231971276174642 Q -2.438109838486912 1.4004272479854847 -2.485745108755707 1.413155164210023 Q -2.5333803790245017 1.425883080434561 -2.5776033422444327 1.4687179491054076 Q -2.6218263054643636 1.511552817776254 -2.6547161315994448 1.581633782108975 Q -2.6901359443603017 1.6571055898519054 -2.7006385637532024 1.716862181054365 Q -2.7111411831461036 1.7766187722568243 -2.696360089759862 1.8175430607760792 Q -2.681578996373621 1.858467349295334 -2.6438430925021557 1.8761772556757625 Q -2.600716345220481 1.8964171486819665 -2.558105398950709 1.878042159688919 Q -2.5154944526809375 1.8596671706958714 -2.4691080222464175 1.8145585447575496 Q -2.422721591811898 1.7694499188192276 -2.374502564321447 1.7087558621672363 Q -2.3262835368309958 1.648061805515245 -2.272783955983222 1.5854605110069642 Q -2.2192843751354476 1.5228592164986836 -2.1602836608245783 1.467225133098243 Q -2.1012829465137086 1.4115910496978028 -2.0355517546793838 1.376657515289026 Q -1.969820562845059 1.341723980880249 -1.8953413655781037 1.3372087733025235 Q -1.8208621683111483 1.3326935657247982 -1.7382025693546055 1.3714866939866892 Q -1.5962436928857606 1.4381096751321107 -1.5420366955822344 1.5468734776738366 Q -1.4878296982787087 1.6556372802155623 -1.5039565523709013 1.7927890704958542 Q -1.520083406463094 1.9299408607761461 -1.5917663608600665 2.0826814240654095 M -1.2593752244241574 1.3469821607232841 L -2.0087228642064456 0.09504359974965748 L -1.7836142526218381 -0.19257832325074675 L -0.388302770901112 0.2340103717217199 L -0.5852728060376433 0.48567955434707355 L -0.8562471624110147 0.3971133133856487 L -1.2220486562360013 0.8644989382613056 L -1.0709691038587796 1.1062551164729457 L -1.2593752244241574 1.3469821607232841 M -1.357021267442036 0.6504729813092933 L -1.096433581205507 0.3175193421838254 L -1.435236463236645 0.20611489623396695 Q -1.4573249175808998 0.1989099666935914 -1.4882827282886257 0.1885444074378353 Q -1.519240538996352 0.17817884818207874 -1.5562811270752395 0.16431291295324657 Q -1.5933217151541272 0.1504469777244144 -1.62896901373686 0.13641116936673514 Q -1.6646163123195927 0.12237536100905544 -1.6941808335311639 0.1118399286244518 L -1.7015213317350097 0.12121890437446492 Q -1.6779383236965062 0.15227962847832144 -1.6478650076974115 0.195982046844684 Q -1.6177916916983166 0.23968446521104658 -1.5908447009492261 0.2809400508427937 Q -1.5638977102001357 0.3221956364745413 -1.546567352661641 0.34836269510916673 L -1.357021267442036 0.6504729813092933 M -0.17376493724104394 0.03637165255198259 L -1.0197723270451893 -1.0306455078052337 L -0.788014955480721 -1.214399299468233 L -0.45257179217645344 -0.7913254399679959 L 0.02027546255910595 -1.1662325048374713 L -0.31516770074516165 -1.5893063643377086 L -0.08341032918069335 -1.7730601560007082 L 0.762597060623452 -0.7060429956434919 L 0.5308396890589837 -0.5222892039804924 L 0.1756645749721122 -0.9702497610983909 L -0.2971826797634472 -0.5953426962289152 L 0.057992434323424324 -0.14738213911101689 L -0.17376493724104394 0.03637165255198259 M 1.131460682644226 -0.9253337778644166 L 0.5513478239870797 -2.1572928661951267 L 1.5354784076681718 -2.6207066366675993 L 1.6386471667879559 -2.401611871687502 L 0.9238953925086224 -2.0650449361983707 L 1.0532791641916304 -1.7902785506085768 L 1.685421436921091 -2.08794579003615 L 1.7877445504743195 -1.8706468837853982 L 1.1556022777448587 -1.5729796443578246 L 1.296825087359645 -1.2730712365572 L 2.022352014015049 -1.614712045445665 L 2.126366418701388 -1.3938214217362228 L 1.131460682644226 -0.9253337778644166 M 2.489568427306331 -1.5163045538478042 L 2.1996882653883234 -2.8468020607324993 L 2.9599725550367206 -3.0124478675427895 Q 3.064705594937265 -3.0352664225625743 3.1579477595870644 -3.012918520811634 Q 3.251189924236864 -2.9905706190606933 3.3157349443899276 -2.927433736825025 Q 3.380279964542991 -2.864296854589357 3.401830822061677 -2.7653823169055096 Q 3.4191560212433654 -2.685862786610652 3.4035856168382717 -2.617460275460389 Q 3.3880152124331784 -2.5490577643101258 3.3474318260989486 -2.4975528200339046 Q 3.306848439764719 -2.4460478757576833 3.2490100744569492 -2.4131307616903026 L 3.2507003377917476 -2.405372758734707 Q 3.3277818925395066 -2.405914254504104 3.3942936126784202 -2.3757109303424686 Q 3.4608053328173334 -2.345507606180833 3.509325117010706 -2.2859897327785634 Q 3.5578449012040787 -2.2264718593762938 3.5777054953879652 -2.135315324648042 Q 3.6039045770773477 -2.015066278836306 3.5663765710341155 -1.921564121542107 Q 3.5288485649908825 -1.8280619642479081 3.446565912770325 -1.7674718545471428 Q 3.364283260549768 -1.7068817448463778 3.2517922176936276 -1.682372926491794 L 2.489568427306331 -1.5163045538478042 M 2.727001005690912 -1.8158859532147371 L 3.1439936645541913 -1.9067376074601767 Q 3.2157551918934533 -1.9223725433070664 3.252459576749885 -1.9730323559158882 Q 3.2891639616063166 -2.0236921685247102 3.270571064923529 -2.1090302010362647 Q 3.2595843532473365 -2.159457220247638 3.232160595018052 -2.1920820759497213 Q 3.2047368367887676 -2.224706931651805 3.161509880756941 -2.2366203727362493 Q 3.1182829247251145 -2.2485338138206945 3.0581584018192465 -2.2354342729760033 L 2.65474224812826 -2.1475405795664613 L 2.727001005690912 -1.8158859532147371 M 2.6057246114190926 -2.3725226652787423 L 2.989745757721089 -2.4561907003512866 Q 3.0421122776713614 -2.467599977861179 3.073556100087145 -2.495782203543063 Q 3.1049999225029294 -2.5239644292249475 3.116030277432724 -2.5619200675758265 Q 3.1270606323625194 -2.599875705926706 3.117341618187426 -2.644484222921382 Q 3.100861550673137 -2.7201247517384424 3.0507109681128144 -2.7498296010918777 Q 3.0005603855524923 -2.779534450445313 2.9326778596910286 -2.764744646265823 L 2.5389592096945366 -2.6789637820247796 L 2.6057246114190926 -2.3725226652787423 M 4.397432353380197 -1.8275232865877187 L 5.0459676746254125 -3.134532843858577 L 5.409621450957035 -3.100530071034129 L 5.804614357446036 -1.6959473395713747 L 5.486417303155868 -1.725699765792767 L 5.414522407998537 -2.0015660466251957 L 4.823585021459652 -2.0568205524649246 L 4.701794753136011 -1.7990644441150825 L 4.397432353380197 -1.8275232865877187 M 4.930745049292225 -2.2860397585972247 L 5.351713822980461 -2.246677853099358 L 5.262385498258194 -2.5919585995250936 Q 5.256512755843751 -2.6144379616497986 5.248507034153289 -2.6460882267784647 Q 5.240501312462827 -2.6777384919071308 5.232154193037147 -2.7163984831421715 Q 5.223807073611466 -2.755058474377212 5.216355744956186 -2.7926378771634592 Q 5.208904416300905 -2.8302172799497063 5.2017944853808435 -2.860786956629579 L 5.189936210065682 -2.8618957426999416 Q 5.176543158080233 -2.825268525927232 5.156019783527643 -2.776349237264945 Q 5.1354964089750545 -2.7274299486026585 5.115342629779253 -2.682463418378759 Q 5.095188850583451 -2.6374968881548595 5.082534989311577 -2.6087751882589245 L 4.930745049292225 -2.2860397585972247 M 6.086840298599462 -1.6222176743973593 L 6.52754499958475 -2.910640543889153 L 6.784853939993461 -2.82262808902766 L 7.065530284913546 -1.9503963701006872 Q 7.072302302858231 -1.9333946378960891 7.081175476419616 -1.9041357046927145 Q 7.090048649981001 -1.87487677148934 7.097364869433058 -1.847199348687906 Q 7.104681088885114 -1.8195219258864717 7.105818604485083 -1.8044474737153369 L 7.115209441726276 -1.8012353403262313 Q 7.126130695249236 -1.8331641869462905 7.136730735433284 -1.86415394984223 Q 7.147330775617332 -1.8951437127381696 7.155682322429007 -1.9195598895652735 L 7.393380193222821 -2.614481845413617 L 7.658201803424487 -2.523899683840839 L 7.217497102439199 -1.2354768143490453 L 6.960188162030488 -1.3234892692105389 L 6.674024652521361 -2.216479055238587 Q 6.664236951528468 -2.249197666292141 6.654498363120801 -2.2881932063682324 Q 6.644759774713133 -2.3271887464443237 6.64115077757233 -2.3473043868675783 L 6.631759940331136 -2.350516520256684 Q 6.622123540163819 -2.3223440085331024 6.612808353335413 -2.29511058053364 Q 6.603493166507007 -2.267877152534178 6.595141619695332 -2.243460975707074 L 6.351661908801128 -1.5316355128245815 L 6.086840298599462 -1.6222176743973593 M 8.03777223830661 -0.7419352552176157 Q 7.936818748048738 -0.8051270490262559 7.8585989655783814 -0.8821903615056065 Q 7.780379183108024 -0.9592536739849571 7.738462727945145 -1.0475491228998268 Q 7.696546272782266 -1.1358445718146966 7.699660616585431 -1.2287382969804777 Q 7.702774960388597 -1.3216320221462587 7.763860361070282 -1.4192203960622018 Q 7.769126343887669 -1.4276331869170247 7.774918924986794 -1.4368872568573297 Q 7.78071150608592 -1.4461413267976346 7.785553653947317 -1.4501358047470507 L 8.034572263250068 -1.2942627133524052 Q 8.029730115388672 -1.2902682354029889 8.024464132571286 -1.2818554445481662 Q 8.019198149753898 -1.2734426536933434 8.014985363499989 -1.2667124210094853 Q 7.981283073468714 -1.21287055953862 7.987557517064092 -1.157423339916547 Q 7.99383196065947 -1.1019761202944738 8.039453776274014 -1.0476592972556344 Q 8.085075591888558 -0.993342474216795 8.160790709581962 -0.9459486288603149 Q 8.209584896539933 -0.9154059285194722 8.251128643358806 -0.897597959439608 Q 8.292672390177678 -0.8797899903597438 8.32896293583216 -0.87229567861016 Q 8.365253481486643 -0.8648013668605761 8.39408166952403 -0.8678326299192676 Q 8.42290985756142 -0.8708638929779591 8.444802286263453 -0.8852620099304082 Q 8.466694714965485 -0.8996601268828572 8.482492663417645 -0.9248984994473253 Q 8.510928970631534 -0.9703275700633678 8.49938854421877 -1.0173619988306184 Q 8.487848117806005 -1.0643964275978688 8.449168452353314 -1.116709620835502 Q 8.410488786900624 -1.1690228140731351 8.357083542038744 -1.2258698651949194 Q 8.303678297176866 -1.2827169163167036 8.247434534254795 -1.3425116396509247 Q 8.191190771332726 -1.4023063629851458 8.143578107569972 -1.4684074840472348 Q 8.095965443807218 -1.5345086051093237 8.068659023074783 -1.6031207817748638 Q 8.04135260234235 -1.6717329584404037 8.046875238423217 -1.74789747439579 Q 8.052397874504084 -1.8240619903511763 8.102951309550997 -1.904824782557474 Q 8.15666433428834 -1.9906352492766657 8.23180760781274 -2.0302461754875907 Q 8.306950881337139 -2.069857101698516 8.397847367528211 -2.0691638318260486 Q 8.488743853719285 -2.0684705619535815 8.586666080918466 -2.0341069561823293 Q 8.684588308117647 -1.9997433504110775 8.785541798375519 -1.9365515566024374 Q 8.879765055949534 -1.8775725490477067 8.95178120401777 -1.8055633019077477 Q 9.023797352086008 -1.7335540547677888 9.061404648495728 -1.6514686310815365 Q 9.099011944905445 -1.5693832073952843 9.095165476169045 -1.482802270783869 Q 9.091319007432643 -1.396221334172454 9.036552786131821 -1.308728309282298 L 9.023914427370094 -1.2885376112307236 L 8.779943492580236 -1.4412511129349372 L 8.788369065088055 -1.4547115783026536 Q 8.816805372301943 -1.5001406489186961 8.80989517627258 -1.5489603991826597 Q 8.802984980243217 -1.5977801494466233 8.765775955483495 -1.646830989668076 Q 8.728566930723774 -1.6958818298895286 8.662947162056158 -1.7369564958651447 Q 8.592279718875647 -1.7811907515311929 8.534218680324376 -1.7987995847860578 Q 8.476157641773103 -1.816408418040923 8.433753443389254 -1.8066533131248712 Q 8.391349245005404 -1.7968982082088196 8.36923211717238 -1.7615644866185645 Q 8.343955399648923 -1.7211830905154155 8.357075620906905 -1.6766724990046118 Q 8.370195842164886 -1.632161907493808 8.409402105899314 -1.5806899933416572 Q 8.448608369633742 -1.5292180791895063 8.5030668110591 -1.4740535862386868 Q 8.557525252484457 -1.4188890932878673 8.613242417124788 -1.3582530908681638 Q 8.668959581765117 -1.2976170884484604 8.71709884380961 -1.2323572464718535 Q 8.765238105854102 -1.1670974044952467 8.792017928304798 -1.0976439487442247 Q 8.818797750755495 -1.0281904929932024 8.814328311238103 -0.9537085352087806 Q 8.809858871720714 -0.8792265774243588 8.761411829800757 -0.8018289015599901 Q 8.678209301286048 -0.6689068060537916 8.563718655742482 -0.6281654832596325 Q 8.449228010198917 -0.5874241604654735 8.315008846518756 -0.6199188538937579 Q 8.180789682838595 -0.6524135473220422 8.03777223830661 -0.7419352552176157 M 8.72818679138263 -0.32352753711941545 L 10.061116107745079 -0.9169679159962977 L 10.319596323730098 -0.6589209521615376 L 9.728392844542052 0.675002018589004 L 9.50222265555516 0.44921092523358896 L 9.622716185633566 0.19084608617988896 L 9.20268583465791 -0.22848023005159626 L 8.94452349389183 -0.10755344782293147 L 8.72818679138263 -0.32352753711941545 M 9.431383035459687 -0.336749830450007 L 9.730601981137998 -0.03803242122824674 L 9.881920696969456 -0.36098905870318454 Q 9.891728282503381 -0.38205139691608814 9.905739623544257 -0.41153890587727815 Q 9.919750964585132 -0.4410264148384683 9.93796841576421 -0.47613188161414177 Q 9.956185866943288 -0.5112373483898153 9.974404495437993 -0.5449392086985871 Q 9.992623123932695 -0.5786410690073591 10.006635642289197 -0.6067249715016475 L 9.998206939594034 -0.6151395464093027 Q 9.964536866807157 -0.5954608002976638 9.917536653189403 -0.5708582470534252 Q 9.87053643957165 -0.5462556938091867 9.826341084256448 -0.5244627081300026 Q 9.782145728941249 -0.5026697224508185 9.754085372759473 -0.48861011146928873 L 9.431383035459687 -0.336749830450007 M 9.897043638352729 0.9128281169194692 L 11.055478357312218 0.1970885511490349 L 11.447778760708257 0.8320323621239153 Q 11.527073523096819 0.9603720685975613 11.534168436594634 1.0738209338792755 Q 11.541263350092446 1.1872697991609895 11.485446156615371 1.2800893864989684 Q 11.429628963138295 1.3729089738369469 11.323242101193035 1.4386401584485173 Q 11.210100517854427 1.5085447516068542 11.0918329158143 1.511616976196348 Q 10.973565313774174 1.5146892007858415 10.868499872577642 1.44660492862128 L 10.550182075921667 1.9699420149787115 L 10.378028973367554 1.6913097575030327 L 10.673953451912233 1.2261414011813025 L 10.474673193804138 0.9036034546488501 L 10.052503106719776 1.164441488821749 L 9.897043638352729 0.9128281169194692 M 10.673937474907957 0.7804879025192419 L 10.889911367203117 1.1300447346250937 Q 10.936862213354239 1.2060353503002788 11.009384726350808 1.219560175249696 Q 11.081907239347379 1.2330850001991134 11.161275215719238 1.1840474497746083 Q 11.21193562616936 1.1527468856738605 11.23676538015501 1.1117393309032795 Q 11.261595134140656 1.070731776132698 11.258260223101844 1.0237926153140042 Q 11.254925312063033 0.9768534544953102 11.222581395825594 0.9245043636968494 L 11.006607503530434 0.5749475315909977 L 10.673937474907957 0.7804879025192419 M 10.660101917233982 2.285528227506212 L 11.923132823113429 1.776600870319212 L 12.033672438595737 2.050932655998567 L 10.77064153271629 2.559860013185567 L 10.660101917233982 2.285528227506212" fill="#002540" fill-rule="nonzero"></path></g><g><path d=" M -2.217607476395017 5.791689840269904 L -2.199714518763661 5.92176090424342 L -3.2136775856481155 6.061244642142401 L -3.2315705432794717 5.931173578168885 L -2.217607476395017 5.791689840269904 M -2.170196073138761 6.150452572937375 L -2.1442889422217566 6.260845354547629 L -2.6834069749873253 6.7781628905455715 Q -2.7035796108756283 6.796689852771419 -2.74584424250769 6.8288303407734094 Q -2.7881088741397515 6.860970828775401 -2.8027232435350777 6.870530691492876 L -2.800248057030324 6.8745474179917405 Q -2.7842701544288397 6.870797701674806 -2.7441104545773713 6.8590741643314965 Q -2.703950754725903 6.847350626988187 -2.669089876322665 6.839169427751239 L -2.043046601664515 6.692248724787699 L -2.016116820842892 6.806999116198358 L -3.012556928535446 7.040845061054478 L -3.037441409547832 6.934809889244629 L -2.490289923784533 6.412541980237179 Q -2.467893981299039 6.3904281782079835 -2.4263556179670447 6.358458131856762 Q -2.384817254635051 6.326488085505541 -2.3716554218398596 6.317269106089605 L -2.3741306083446134 6.3132523795907405 Q -2.388315091044423 6.318113749206271 -2.4277485225958237 6.32966684489881 Q -2.467181954147225 6.341219940591349 -2.5049479057507327 6.3500829064313775 L -3.139706400009692 6.499048909204154 L -3.1666361808313153 6.3842985177934946 L -2.170196073138761 6.150452572937375 M -1.9482306847838844 7.028338533797658 L -1.907790644989986 7.1342741219891055 L -2.3728699655566925 7.719053492252122 Q -2.3903832425687725 7.740112188705088 -2.4279691115057527 7.777617021890321 Q -2.4655549804427332 7.815121855075554 -2.4787593397970795 7.826550576003168 L -2.4757691331184857 7.830200138171332 Q -2.460436350617092 7.824346974516951 -2.422205608384596 7.807357178510157 Q -2.3839748661521005 7.790367382503364 -2.350521522512696 7.77759684362108 L -1.749755226321725 7.548259249526735 L -1.7077188691675411 7.6583765056731075 L -2.6639269415271842 8.023401075391718 L -2.702770663960797 7.9216471551551955 L -2.230392219057763 7.330887371534991 Q -2.2111553749825896 7.305976684871884 -2.1742664507047635 7.268737904580032 Q -2.1373775264269375 7.231499124288181 -2.1255670563908997 7.220602509147328 L -2.1285572630694936 7.2169529469791645 Q -2.141964050465817 7.223667894165091 -2.1794978480391585 7.240391637278504 Q -2.2170316456125 7.257115380391917 -2.2532727678885216 7.270950130847725 L -2.8624023999893433 7.503480359662641 L -2.9044387571435273 7.3933631035162675 L -1.9482306847838844 7.028338533797658 M -2.3707286940237826 8.372951104733664 Q -2.3042920863009577 8.215347538218552 -2.075648841069639 8.089270274566095 Q -1.8470055958383198 7.96319301091364 -1.6782662941803594 7.991117106243369 Q -1.5095269925223989 8.0190412015731 -1.4173104796794596 8.186277403799435 Q -1.3250939668365203 8.353513606025771 -1.391530574559345 8.511117172540883 Q -1.4579671822821698 8.668720739055995 -1.6866104275134888 8.794798002708452 Q -1.9152536727448077 8.920875266360907 -2.083992974402768 8.892951171031179 Q -2.252732276060729 8.86502707570145 -2.344948788903668 8.697790873475114 Q -2.4371653017466075 8.530554671248778 -2.3707286940237826 8.372951104733664 M -2.062430224036344 8.765203097242823 Q -1.9462579049435527 8.781222325332921 -1.7855543668666827 8.69260802002291 L -1.7202277253720202 8.656585944693637 Q -1.5595241872951502 8.567971639383623 -1.511073369821392 8.461176781463758 Q -1.462622552347634 8.35438192354389 -1.523139638900813 8.244633165832857 Q -1.5836567254539917 8.134884408121824 -1.6998290445467834 8.118865180031726 Q -1.8160013636395749 8.102845951941626 -1.9767049017164449 8.191460257251638 L -2.0420315432111074 8.227482332580912 Q -2.2027350812879773 8.316096637890924 -2.2511858987617357 8.422891495810791 Q -2.2996367162354936 8.529686353730657 -2.239119629682315 8.63943511144169 Q -2.178602543129136 8.749183869152724 -2.062430224036344 8.765203097242823 M -1.1777856327250789 8.636730758931202 L -1.09234112146931 8.75353945583457 L -1.6518746839703706 9.477088895043027 L -1.6483511989701327 9.481905748523577 L -0.7849170551985547 9.173809922012666 L -0.7100429989434995 9.27616805847438 L -1.7202354621204674 9.628765141656375 L -1.8197739133771877 9.492689030830801 L -1.1777856327250789 8.636730758931202 M -0.5229144432358483 9.469228039220564 L -0.40893017189817993 9.593454433773497 L -0.9431844684618932 10.525087744837036 L -1.0390119532148003 10.420649625522623 L -0.9182210008809228 10.214647554207126 L -1.1925902203839835 9.9156247283806 L -1.4081999471049484 10.018288029006047 L -1.496966459297115 9.92154535006217 L -0.5229144432358483 9.469228039220564 M -0.8554908700774463 10.106467009332464 L -0.6139996036682331 9.696570925691654 Q -0.6026435643904422 9.678051586072725 -0.5790587328568535 9.6452743439445 Q -0.5554739013232648 9.612497101816276 -0.5465884740698248 9.602319359899532 L -0.5506233155331051 9.597921965402083 Q -0.5615261635181854 9.605901010070102 -0.5962068090757948 9.626585417330341 Q -0.6308874546334042 9.647269824590582 -0.6503131768377559 9.656994375214614 L -1.0804332816553233 9.861312266099688 L -0.8554908700774463 10.106467009332464 M -0.0815140616619372 10.07373991341498 L -0.2920161952784124 9.890622236062653 L -0.21367708197260327 9.800567847349722 L 0.3063870128445707 10.25297622669077 L 0.2280478995387618 10.3430306154037 L 0.017545765922286516 10.15991293805137 L -0.5758730173692176 10.84207493255182 L -0.6749328449534413 10.75590190791543 L -0.0815140616619372 10.07373991341498 M 0.4350372843682523 10.340854100690857 L 0.5409557590766065 10.418442220473821 L -0.0638789019587798 11.244124875586675 L -0.16979737666713401 11.166536755803708 L 0.4350372843682523 10.340854100690857 M 0.32804710578305335 11.376938472954391 Q 0.305093233343878 11.207451521350304 0.4378344161125993 10.982611604082127 Q 0.5705755988813206 10.75777168681395 0.7300632593111808 10.695994723513625 Q 0.889550919741041 10.6342177602133 1.0540052592286222 10.731308453895565 Q 1.2184595987162035 10.82839914757783 1.2414134711553788 10.997886099181917 Q 1.2643673435945542 11.167373050786004 1.131626160825833 11.392212968054181 Q 0.9988849780571116 11.617052885322359 0.8393973176272516 11.678829848622684 Q 0.6799096571973913 11.740606811923008 0.51545531770981 11.643516118240743 Q 0.35100097822222875 11.546425424558478 0.32804710578305335 11.376938472954391 M 0.7929910861716793 11.557871243132658 Q 0.9011634897490153 11.512579362002569 0.9944615782093166 11.354549020151222 L 1.0323876304289512 11.290309043788886 Q 1.1256857188892524 11.132278701937537 1.1130869669053958 11.015685842634538 Q 1.1004882149215394 10.899092983331537 0.9925650546328141 10.83537721560255 Q 0.8846418943440888 10.771661447873564 0.7764694907667529 10.816953329003653 Q 0.6682970871894169 10.86224521013374 0.5749989987291158 11.020275551985087 L 0.537072946509481 11.084515528347422 Q 0.44377485804917977 11.242545870198771 0.45637361003303634 11.35913872950177 Q 0.46897236201689296 11.475731588804772 0.5768955223056182 11.539447356533758 Q 0.6848186825943435 11.603163124262744 0.7929910861716793 11.557871243132658 M 1.5731731824865967 11.037114906595177 L 1.6778747553465139 11.080650252059057 L 1.7822848498773887 11.820490923057923 Q 1.7855183844605094 11.847688860885997 1.7868772539196238 11.90076864545407 Q 1.788236123378738 11.953848430022143 1.7874455640542246 11.971293939013126 L 1.7921513543705885 11.971634787217491 Q 1.7984525227929922 11.956480612198291 1.8124253821837653 11.91704709827364 Q 1.8263982415745388 11.877613584348989 1.8401462454052377 11.844549929761646 L 2.0870374808648755 11.250781799463958 L 2.1958720105482104 11.296035645406675 L 1.8029082343873952 12.241105105694876 L 1.7023396183508956 12.199288260709833 L 1.5986112202287506 11.45003600907824 Q 1.5937680480825762 11.418937099715329 1.592122761876989 11.366546141284491 Q 1.5904774756714017 11.314155182853655 1.5906952015029694 11.298087326137146 L 1.5859894111866057 11.297746477932781 Q 1.5816387285316202 11.312095834170453 1.56795228588732 11.350840521957867 Q 1.5542658432430194 11.389585209745283 1.5393721724264289 11.42540416888157 L 1.2890439360091166 12.027438212826095 L 1.1802094063257813 11.982184366883377 L 1.5731731824865967 11.037114906595177 M 2.914021679579455 11.623570820757939 L 2.6417201920165954 11.56278322426775 L 2.667725580889403 11.446290609267598 L 3.340470432515291 11.59647173000806 L 3.3144650436424836 11.712964345008213 L 3.042163556079624 11.652176748518027 L 2.8451727353681067 12.534608307144191 L 2.7170308588679375 12.506002379384103 L 2.914021679579455 11.623570820757939 M 3.4952600242283505 11.620647250695189 L 3.625956913962675 11.633175723458214 L 3.5839580564048057 12.07130734245396 L 3.9938710287533685 12.110601188847085 L 4.035869886311238 11.672469569851339 L 4.166566776045562 11.684998042614364 L 4.068901636097433 12.703839705770575 L 3.938204746363108 12.69131123300755 L 3.982481508059709 12.229416543151016 L 3.5725685357111465 12.190122696757891 L 3.5282917740145456 12.652017386614425 L 3.3975948842802213 12.639488913851398 L 3.4952600242283505 11.620647250695189 M 4.397988909740615 11.691590560209844 L 4.809474311800098 11.675702981541415 Q 4.957072336451869 11.670004176149478 5.039053990838017 11.743734091137291 Q 5.121035645224165 11.817464006125105 5.126043686326169 11.947171361122116 Q 5.129727762539138 12.042588265947504 5.0847248035953445 12.114502093535132 Q 5.03972184465155 12.18641592112276 4.954343984779268 12.218081508810801 L 5.178449503183028 12.685731354465625 L 5.032342367669154 12.691372596166735 L 4.825557648835499 12.246943776119153 L 4.55123404746251 12.257535495231439 L 4.568675845783287 12.709274904014132 L 4.437477601648379 12.714340508806965 L 4.397988909740615 11.691590560209844 M 4.8224434427071845 12.127615081396591 Q 4.899969677877811 12.124621769473553 4.9458936558748485 12.076562168092272 Q 4.991817633871885 12.02850256671099 4.9888818856396755 11.95246722067826 Q 4.985888573716638 11.874940985507632 4.939492552545736 11.833432111233458 Q 4.893096531374834 11.791923236959283 4.80960673965262 11.79514680364563 L 4.533792249141734 11.805796086448746 L 4.546628952196299 12.138264364199705 L 4.8224434427071845 12.127615081396591 M 5.536410394731283 12.52254426303718 Q 5.408393131806849 12.409123420960706 5.362200457865774 12.152142007480716 Q 5.3160077839247 11.895160594000727 5.3965125822240285 11.744257696497781 Q 5.477017380523358 11.593354798994836 5.664980928668722 11.55956815748365 Q 5.852944476814086 11.525781515972463 5.98096173973852 11.639202358048937 Q 6.108979002662955 11.75262320012541 6.155171676604029 12.0096046136054 Q 6.201364350545104 12.26658602708539 6.120859552245775 12.417488924588335 Q 6.0403547539464455 12.56839182209128 5.852391205801082 12.602178463602467 Q 5.664427657655718 12.635965105113652 5.536410394731283 12.52254426303718 M 6.006750177906019 12.356140956017327 Q 6.0591386806218575 12.251221614734643 6.026671829794703 12.070600392688707 L 6.013473922954395 11.997177131694423 Q 5.98100707212724 11.816555909648487 5.895359844173827 11.73644863322558 Q 5.8097126162204145 11.656341356802672 5.686361537750019 11.678513840294388 Q 5.563010459279624 11.700686323786105 5.510621956563785 11.80560566506879 Q 5.458233453847946 11.910525006351474 5.4907003046751015 12.09114622839741 L 5.503898211515408 12.164569489391692 Q 5.536365062342564 12.34519071143763 5.622012290295976 12.425297987860537 Q 5.70765951824939 12.505405264283445 5.831010596719785 12.483232780791727 Q 5.95436167519018 12.461060297300012 6.006750177906019 12.356140956017327 M 6.638847569700931 12.328419694959258 Q 6.526352731819958 12.270336261158098 6.4733151697906814 12.10872888274365 L 6.257908229268267 11.452376109007778 L 6.382657784535561 11.411434833055354 L 6.6003909339189075 12.074875649704142 Q 6.633888341516346 12.176943467650108 6.703542863009806 12.214540073394737 Q 6.773197384503266 12.252136679139365 6.8653419423711535 12.221895963947233 Q 6.957486500239041 12.191655248755103 6.99131740527413 12.120095993640849 Q 7.02514831030922 12.048536738526597 6.991650902711782 11.946468920580628 L 6.773917753328435 11.283028103931843 L 6.898667308595728 11.242086827979417 L 7.114074249118142 11.89843960171529 Q 7.167111811147419 12.060046980129739 7.110911227701029 12.173494184821108 Q 7.054710644254639 12.286941389512476 6.903026525918271 12.336722259136447 Q 6.7513424075819035 12.386503128760417 6.638847569700931 12.328419694959258 M 7.645239905149623 11.443009891800273 L 8.00417335636375 11.266795254679758 L 8.23890703342354 11.744926754991116 L 8.161227405921975 11.78306275854705 L 8.085809316391275 11.693768489192632 Q 8.063312603681416 11.85107827252873 7.906614044755845 11.928007796943282 Q 7.731165230916102 12.014142563595474 7.579564568367193 11.940641967035093 Q 7.427963905818284 11.867141370474714 7.311583343242422 11.630084576202696 Q 7.196517815271937 11.39570638977556 7.233771140445709 11.227827790962317 Q 7.271024465619481 11.059949192149077 7.446473279459224 10.973814425496885 Q 7.596475318772591 10.900172487595775 7.729641227529159 10.939508699475383 Q 7.862807136285728 10.97884491135499 7.9417092126083455 11.139561382047884 L 7.8211718595886754 11.198737939289849 Q 7.766597923465532 11.087575713727263 7.68271929735157 11.060608738271451 Q 7.598840671237609 11.033641762815641 7.4997321809769915 11.082298043214589 Q 7.383212739724644 11.139502048548486 7.360349741516861 11.255439026191302 Q 7.337486743309078 11.37137600383412 7.418361371539762 11.536110386294336 L 7.451237236674186 11.603075582416375 Q 7.532769382207558 11.769149268799032 7.634802542096644 11.822938726679254 Q 7.736835701985729 11.876728184559477 7.853355143238077 11.819524179225578 Q 7.967195976645543 11.763635208497057 7.988537651052907 11.673376686763705 Q 8.00987932546027 11.583118165030353 7.9447851124941105 11.450527076708715 L 7.934264835651095 11.429098213949663 L 7.695868737456636 11.546136293828212 L 7.645239905149623 11.443009891800273 M 7.9803836875827425 10.71102482633508 L 8.089069617907779 10.637363383467175 L 8.336002863885414 11.001708263534056 L 8.676881463541205 10.770679192721081 L 8.42994821756357 10.406334312654202 L 8.538634147888606 10.332672869786297 L 9.112858577517954 11.179929099365548 L 9.004172647192918 11.253590542233454 L 8.743846411602938 10.869484583925658 L 8.402967811947144 11.100513654738632 L 8.663294047537127 11.484619613046428 L 8.55460811721209 11.558281055914332 L 7.9803836875827425 10.71102482633508 M 9.327202193552003 10.347972037424107 Q 8.953483749276055 9.972639864531928 9.238947655419404 9.688403301279799 Q 9.354190491603198 9.5736559479669 9.492919696623881 9.575537329993361 Q 9.631648901644564 9.57741871201982 9.765345359174269 9.71169247527984 L 9.670190723793153 9.806437996363883 Q 9.5775506587332 9.713397908435681 9.487360585126881 9.707401074363691 Q 9.397170511520564 9.701404240291701 9.324218624395042 9.774042473122801 Q 9.229063989013925 9.868787994206846 9.24781308179661 9.980658997777146 Q 9.266562174579294 10.092530001347447 9.398153176084909 10.224689217154554 L 9.450789576687155 10.277552903477394 Q 9.58238057819277 10.409712119284501 9.694169758903657 10.428943057794848 Q 9.805958939614545 10.448173996305195 9.90111357499566 10.353428475221152 Q 9.976180009574096 10.278684786365963 9.971626834953577 10.188471984187586 Q 9.967073660333057 10.098259182009208 9.875486323285148 10.006276367807462 L 9.967469137486894 9.914689030759554 Q 10.102218323028644 10.050020067746031 10.102451488455099 10.186643816742624 Q 10.102684653881552 10.323267565739215 9.9863845439713 10.439067647064157 Q 9.70092063782795 10.723304210316286 9.327202193552003 10.347972037424107 M 10.39597903238497 9.795343458646796 Q 10.224977780645412 9.798701870102253 10.0168506992032 9.641042972572343 Q 9.808723617760988 9.483384075042432 9.765651300017128 9.317862226127637 Q 9.722578982273268 9.152340377212845 9.837895204466573 9.00011028335797 Q 9.95321142665988 8.847880189503094 10.124212678399438 8.844521778047636 Q 10.295213930138997 8.841163366592177 10.50334101158121 8.998822264122088 Q 10.71146809302342 9.156481161652 10.75454041076728 9.322003010566792 Q 10.79761272851114 9.487524859481587 10.682296506317835 9.639754953336462 Q 10.56698028412453 9.791985047191337 10.39597903238497 9.795343458646796 M 10.62905659688206 9.354226216689394 Q 10.596473522899469 9.24157202599129 10.450189917085801 9.13076034372741 L 10.39072503667374 9.08571494443315 Q 10.244441430860071 8.97490326216927 10.12717300620427 8.97404304664584 Q 10.009904581548469 8.973182831122408 9.934228310734111 9.07308383021467 Q 9.858552039919754 9.172984829306932 9.891135113902347 9.285639020005037 Q 9.923718187884939 9.398293210703141 10.070001793698607 9.509104892967022 L 10.129466674110668 9.554150292261282 Q 10.275750279924337 9.664961974525161 10.393018704580138 9.665822190048592 Q 10.51028712923594 9.666682405572024 10.585963400050296 9.56678140647976 Q 10.661639670864654 9.4668804073875 10.62905659688206 9.354226216689394 M 10.201242675849338 8.51945288552405 L 10.35611469542958 8.241948011391834 Q 10.445547833497045 8.081698717878865 10.60609547501106 8.054257580725174 Q 10.766643116525074 8.026816443571484 10.979006001424374 8.145333528977963 Q 11.205700123954916 8.271848699902668 11.27286157420551 8.425517137430473 Q 11.340023024456107 8.579185574958277 11.249862787705167 8.740737708255905 L 11.094990768124923 9.01824258238812 L 10.201242675849338 8.51945288552405 M 11.1398188154647 8.692992531855145 Q 11.200168006193152 8.584856829728508 11.152550608433613 8.47883111202469 Q 11.104933210674071 8.372805394320872 10.944683917161102 8.283372256253408 L 10.879541927928187 8.24701732207964 Q 10.73362387204646 8.165582269530406 10.624249075754676 8.183992595875447 Q 10.514874279462893 8.20240292222049 10.45452508873444 8.310538624347126 L 10.369454542767828 8.462970879152147 L 11.054748269498088 8.845424786660166 L 11.1398188154647 8.692992531855145 M 10.621116322598615 7.7188697573889495 L 10.674080723891711 7.59873062216789 L 11.610619891637695 8.011612204975432 L 11.5576554903446 8.131751340196491 L 10.621116322598615 7.7188697573889495 M 10.768855861224619 7.388519082747088 L 10.804678120633348 7.280934179554987 L 11.534990876225734 7.1231084360178345 Q 11.561882439196157 7.1179096468311345 11.614723651237867 7.1127023091271635 Q 11.667564863279575 7.107494971423193 11.685021744499943 7.1070174088011875 L 11.685020190224076 7.102299290788227 Q 11.669448691077852 7.097114490084332 11.629105129518747 7.086040201812539 Q 11.588761567959644 7.074965913540746 11.554787388004243 7.0636536210958845 L 10.944667739638513 6.860503702606908 L 10.981904035602849 6.748672026920382 L 11.952999345994707 7.072015052636015 L 11.918591123141587 7.175353183333691 L 11.178842131523277 7.333182035422578 Q 11.148176695852833 7.340269315235156 11.096043279226862 7.345712325698395 Q 11.043909862600891 7.351155336161634 11.027868572211997 7.352104244302175 L 11.027870126487864 7.356822362315135 Q 11.04249738032115 7.36012022666902 11.082133146464518 7.370958842181545 Q 11.121768912607884 7.381797457694069 11.158574274226234 7.394052441176003 L 11.777187467580815 7.600030432776195 L 11.739951171616477 7.711862108462721 L 10.768855861224619 7.388519082747088 M 11.588210478698949 6.268950006829017 L 11.660646290031021 5.875709782573328 L 12.18447748428207 5.9722007700567215 L 12.168801077351993 6.057304997694147 L 12.052149818177584 6.064642470080791 Q 12.165056501217048 6.176466219530655 12.133433404478794 6.348141989075117 Q 12.098026347447073 6.540360158394129 11.948650717423433 6.618283323980756 Q 11.799275087399794 6.696206489567382 11.539560461678686 6.648366420142843 Q 11.282780464496799 6.601066916474513 11.17018254745537 6.47109483003311 Q 11.057584630413942 6.341122743591707 11.092991687445664 6.148904574272695 Q 11.123263369793396 5.984565376076287 11.23421854592905 5.901082169928547 Q 11.345173722064704 5.817598963780808 11.521251434417996 5.850032909153377 L 11.49692597538857 5.982091193418348 Q 11.375138891010875 5.959657714535654 11.303491983637382 6.010936972991818 Q 11.231845076263888 6.062216231447981 11.211844143284138 6.170797487399179 Q 11.188329532889025 6.298453828855317 11.267796753725476 6.385912735117233 Q 11.347263974561928 6.473371641379149 11.527743629724053 6.506616435386032 L 11.601109343204593 6.52013057929127 Q 11.78305631263633 6.553645656176258 11.887061325440769 6.503775536790514 Q 11.991066338245208 6.45390541740477 12.01458094864032 6.326249075948632 Q 12.037554993279224 6.201527363031716 11.977800082023045 6.130594871233063 Q 11.918045170766863 6.059662379434409 11.772781058075397 6.032904374502039 L 11.749304029761625 6.028579848452363 L 11.70119367745898 6.289761788443082 L 11.588210478698949 6.268950006829017" fill="#3f6072" fill-rule="nonzero"></path></g><g clip-path="url(#SvgjsClipPath1004)"><g clip-path="url(#SvgjsClipPath1000f382a771-444a-4147-8168-6e3bc53cea65)"><path d=" M 2.6679704636406165 4.762941850740531 L 1.7949150883435845 4.762941850740531 L 1.7678015673716272 4.790055371712488 L 6.218034142902249 9.31801337402939 L 7.100127358523267 9.31801337402939 L 2.581207196530352 4.847897549785997 Z" fill="#002540" transform="matrix(1,0,0,1,0,0)" fill-rule="nonzero"></path></g><g clip-path="url(#SvgjsClipPath1000f382a771-444a-4147-8168-6e3bc53cea65)"><path d=" M 7.1308560156248175 0.3795892936074048 L 6.218034142902249 0.3795892936074048 L 1.7949150883435845 4.762941850740531 L 2.6679704636406165 4.762941850740531 Z" fill="#3f6072" transform="matrix(1,0,0,1,0,0)" fill-rule="nonzero"></path></g><g clip-path="url(#SvgjsClipPath1000f382a771-444a-4147-8168-6e3bc53cea65)"><path d=" M 4.499036913280145 4.790055371712488 L 4.526150434252102 4.762941850740531 L 3.757934006713308 4.762941850740531 L 3.6729783076678406 4.847897549785997 L 8.15755467642961 9.31801337402939 L 8.949269488810767 9.31801337402939 Z" fill="#002540" transform="matrix(1,0,0,1,0,0)" fill-rule="nonzero"></path></g><g clip-path="url(#SvgjsClipPath1000f382a771-444a-4147-8168-6e3bc53cea65)"><path d=" M 4.526150434252102 4.762941850740531 L 8.949269488810767 0.3795892936074048 L 8.115980610939273 0.3795892936074048 L 3.757934006713308 4.762941850740531 Z" fill="#3f6072" transform="matrix(1,0,0,1,0,0)" fill-rule="nonzero"></path></g><g clip-path="url(#SvgjsClipPath1000f382a771-444a-4147-8168-6e3bc53cea65)"><path d=" M 3.757934006713308 4.762941850740531 L 2.6679704636406165 4.762941850740531 L 2.581207196530352 4.847897549785997 L 7.100127358523267 9.31801337402939 L 7.318843094363723 9.53492154180505 L 7.664088594739981 9.874744337986915 L 8.71790077651673 9.874744337986915 L 8.376270412270063 9.53492154180505 L 8.15755467642961 9.31801337402939 L 3.6729783076678406 4.847897549785997 Z" fill="#ff8b00" transform="matrix(1,0,0,1,0,0)" fill-rule="nonzero"></path></g><g clip-path="url(#SvgjsClipPath1000f382a771-444a-4147-8168-6e3bc53cea65)"><path d=" M 3.757934006713308 4.762941850740531 L 8.115980610939273 0.3795892936074048 L 8.332888778714933 0.16087355776694773 L 8.49376233648188 0 L 7.51767558149141 0 L 7.3531868875948705 0.16087355776694773 L 7.1308560156248175 0.3795892936074048 L 2.6679704636406165 4.762941850740531 Z" fill="#ff9912" transform="matrix(1,0,0,1,0,0)" fill-rule="nonzero"></path></g><g clip-path="url(#SvgjsClipPath1000f382a771-444a-4147-8168-6e3bc53cea65)"><path d=" M 7.32065066242852 2.2992265784219943 L 6.8344148529980835 2.7800396836580403 C 7.204966306281501 3.32231010309719 7.42368204212196 3.9766497425537635 7.42368204212196 4.683408855889454 C 7.42368204212196 4.719560217185398 7.42368204212196 4.755711578481342 7.421874474057161 4.7918629397772845 L 4.844282413656403 4.7918629397772845 L 5.357631744058797 5.296174429855693 L 7.367647432113246 5.296174429855693 L 8.050908160606575 5.296174429855693 L 8.097904930291302 5.296174429855693 L 8.097904930291302 4.7918629397772845 L 8.096097362226505 4.7918629397772845 C 8.097904930291302 4.755711578481342 8.097904930291302 4.719560217185398 8.097904930291302 4.683408855889454 C 8.097904930291302 3.79408536800925 7.808694039923755 2.969834330461743 7.32065066242852 2.2992265784219943 Z" fill="#002540" transform="matrix(1,0,0,1,0,0)" fill-rule="nonzero"></path></g><g clip-path="url(#SvgjsClipPath1000f382a771-444a-4147-8168-6e3bc53cea65)"><path d=" M 6.722345632980658 6.740421313628629 L 7.197736034022311 7.224849554994271 C 7.532136126009787 6.81091646815572 7.787003223146188 6.330103362919673 7.93883894058915 5.805908624128495 L 7.23027225918866 5.805908624128495 C 7.110972766912049 6.145731420310362 6.939253800756318 6.460248263585068 6.722345632980658 6.740421313628629 Z" fill="#002540" transform="matrix(1,0,0,1,0,0)" fill-rule="nonzero"></path></g><g clip-path="url(#SvgjsClipPath1000f382a771-444a-4147-8168-6e3bc53cea65)"><path d=" M 4.04895246514565 8.058138432865764 C 2.1871573584045696 8.058138432865764 0.6742228881693418 6.543396394565739 0.6742228881693418 4.683408855889455 C 0.6742228881693418 4.244169816143744 0.759178587214809 3.8230064570460054 0.912821872722568 3.4361868911794127 C 0.7790618359275773 3.1289003201638943 0.6760304562341392 2.8360742936667536 0.5964974613830637 2.5685542200767726 C 0.2187157358404559 3.184934930172606 -7.948548032042495e-16 3.9079621560914717 -7.948548032042495e-16 4.681601287824658 C -7.948548032042495e-16 6.913947847849158 1.816605905121151 8.73055375297031 4.04895246514565 8.73055375297031 C 4.4411947352066345 8.73055375297031 4.82078402881404 8.674519142961596 5.180490073708675 8.569680195203363 L 4.627374245880744 8.005718958986646 C 4.439387167141838 8.04187032028259 4.245977384208542 8.058138432865764 4.04895246514565 8.058138432865764 Z" fill="#426575" transform="matrix(1,0,0,1,0,0)" fill-rule="nonzero"></path></g><g clip-path="url(#SvgjsClipPath1000f382a771-444a-4147-8168-6e3bc53cea65)"><path d=" M 4.04895246514565 1.308679278913148 C 4.330933083254007 1.308679278913148 4.605683429103176 1.3430230721442944 4.867780798498767 1.409903090541789 L 5.411858786002714 0.8712478072322339 C 4.985272722710581 0.7194120897892718 4.526150434252102 0.6344563907438052 4.04895246514565 0.6344563907438052 C 2.5902450368543377 0.6344563907438052 1.3086792789131467 1.409903090541789 0.5964974613830637 2.5703617881415695 C 0.6760304562341392 2.8360742936667522 0.7790618359275773 3.1307078882286907 0.912821872722568 3.437994459244209 C 1.4099030905417884 2.1907724945341642 2.6282039662150782 1.308679278913148 4.04895246514565 1.308679278913148 Z" fill="#002540" transform="matrix(1,0,0,1,0,0)" fill-rule="nonzero"></path></g></g><g transform="matrix(0.16139412442037065,-0.9868900326797215,0.9868900326797215,0.16139412442037065,-6.477462201474655,0.577253944238977)"><g clip-path="url(#SvgjsClipPath1005)"><path d=" M -2.8990684651155907 4.344910070582352 C -2.7627592606138527 4.344910070582352 -2.6498508368197013 4.232243203234214 -2.6498508368197013 4.095692442286463 C -2.6498508368197013 3.9593837867766473 -2.7627592606138527 3.846475637478457 -2.8993100215616048 3.846475637478457 C -3.035619500559304 3.846475637478457 -3.1482860934114805 3.9593837867766473 -3.1482860934114805 4.095692442286463 C -3.1482860934114805 4.232243203234214 -3.0353782186092513 4.344910070582352 -2.8990684651155907 4.344910070582352 Z M -2.898585352223563 4.19388513759107 C -2.9533500414783496 4.19388513759107 -2.9972584154605837 4.149976763608835 -2.9972584154605837 4.095212074354049 C -2.9972584154605837 4.040927753031676 -2.9533500414783496 3.997019379049442 -2.898585352223563 3.997019379049442 C -2.8443037758608045 3.997019379049442 -2.80039540187857 4.040927753031676 -2.80039540187857 4.095212074354049 C -2.80039540187857 4.149976763608835 -2.8443037758608045 4.19388513759107 -2.898585352223563 4.19388513759107 Z" fill="#3a505e" transform="matrix(1,0,0,1,0,0)" fill-rule="nonzero"></path></g></g><g transform="matrix(-0.16139412442037065,-0.9868900326797215,-0.9868900326797215,0.16139412442037065,17.80687643675805,15.13132234706842)"><g clip-path="url(#SvgjsClipPath1006)"><path d=" M 11.848337953926357 4.344910070582352 C 11.984647158428096 4.344910070582352 12.097555582222247 4.232243203234214 12.097555582222247 4.095692442286463 C 12.097555582222247 3.9593837867766473 11.984647158428096 3.846475637478457 11.848096397480344 3.846475637478457 C 11.711786918482645 3.846475637478457 11.59912032563047 3.9593837867766473 11.59912032563047 4.095692442286463 C 11.59912032563047 4.232243203234214 11.712028200432698 4.344910070582352 11.848337953926357 4.344910070582352 Z M 11.848821066818386 4.19388513759107 C 11.7940563775636 4.19388513759107 11.750148003581366 4.149976763608835 11.750148003581366 4.095212074354049 C 11.750148003581366 4.040927753031676 11.7940563775636 3.997019379049442 11.848821066818386 3.997019379049442 C 11.903102643181144 3.997019379049442 11.947011017163378 4.040927753031676 11.947011017163378 4.095212074354049 C 11.947011017163378 4.149976763608835 11.903102643181144 4.19388513759107 11.848821066818386 4.19388513759107 Z" fill="#3a505e" transform="matrix(1,0,0,1,0,0)" fill-rule="nonzero"></path></g></g></g><defs><clipPath id="SvgjsClipPath1004"><path d=" M 0 0 h 8.949269488810767 v 9.874744337986915 h -8.949269488810767 Z"></path></clipPath><clipPath id="SvgjsClipPath1000f382a771-444a-4147-8168-6e3bc53cea65"><path d=" M -7.948548032042495e-16 0 L 8.949269488810767 0 L 8.949269488810767 9.874744337986915 L -1.589709606408499e-15 9.874744337986915 Z"></path></clipPath><clipPath id="SvgjsClipPath1005"><path d=" M -3.2833628110466253 3.702018569355097 h 0.768588691862069 v 0.7960382880000001 h -0.768588691862069 Z"></path></clipPath><clipPath id="SvgjsClipPath1006"><path d=" M 11.464043607995324 3.702018569355097 h 0.768588691862069 v 0.7960382880000001 h -0.768588691862069 Z"></path></clipPath></defs></svg>